<?xml version="1.0" encoding="UTF-8"?>
<svg version="1.1" viewBox="0 0 1600 1066" width="1280" height="1280" xmlns="http://www.w3.org/2000/svg">
<path transform="translate(0)" d="m0 0h1600v1066h-1600z" fill="#003673"/>
<path transform="translate(933)" d="m0 0h667v1066h-655v-350l1-15 1-3 1-17 1-7h1l1 9v27l4-4 1-2v-80l-8 14-12 17-11 14-11 12-12 12-11 9-8 6-2-1-2-5 2-4 2-1-1-3h-1v-7l1-4 1-55 8-11 8-15 7-19 3-14 1-7v-31l-3-17-7-21-10-19-12-16-15-15-15-11-1-3 2-26v-26l-1-11-15-6-3-5-2-1-1 4h-4l2 5 1 1v10l-2 2v6l2 2v11l-2 1v20l-2 4-18-5-21-3v-59h-21v-26l14-8 4 1 16 8 26 14 5 3 19 10 37 19 1-2 1-13h14l2-9 1-1v-5l-5-5-9-6-5-7-2-9-24-10-11-4-1-8 3-3 6 2 7 3 2-13 2-7-5-2-14-8-13-7-2-5-3-2v-9l4-3v-5l-1-3v-5l-3-1v-3l4-3v-5l-1-2-1-6-2-4 4-3v-5l-1-3v-5l12 1 25 5 7 2v-2l-5-2-4-3-1-7 1-3 4-1 5 2h6v-8l-5-5-9-6-2-9 7-1 7 2h4l1-5 5-2 1-26 1-9-10-2-9-3-2-1-1-9 2-11v-13l-2-4 1-10 1-9v-12l2-10v-16l-1-10z" fill="#003673"/>
<path transform="translate(0)" d="m0 0h933v1h-61l2 10v16l-2 11v11l-2 14 1 8 1 5v9l-2 11v9l11 3 10 3 1 6-1 3-1 24-4 4h-2v5l-5 1-7-2h-7l3 9 12 8 2 3-1 8-6 1-7-2h-2v10l4 2 5 3v2l-12-2-20-4-12-2 1 7 1 1v5l-3 3h-2l4 6v5l1 1v5l-3 3h-2l1 3 3 3v5l1 1v5l-3 3h-2l1 9 4 3 1 4 14 7 17 10-1 7-3 13-5-1-6-3-4 2v8l6 1 22 9 8 4 2 9 5 7 9 6 1 3 4 2v5l-2 3-1 7-1 1-14-1v14l-2 2-39-20-15-8-2 1-2-4-16-8-24-13-6-3-5 1-11 6-1 26 21-1 1 3v35l-1 22h8l17 3 14 4 1-3v-20l3-1-1-11-2-2v-6l2-2v-10l-2-2v-4h4v-5l5 3 1 4 10 3 6 3 1 11v26l-2 28 12 9 10 9 11 11 11 16 10 19 6 19 3 17v31l-3 17-6 18-8 16-9 14-2 3 2 1h-2l1 4-1 48-1 9 2 2-1 4h-2l-1 8 3 1 9-7 14-12 15-15 11-14 13-18 8-14 4-4v81l-4 6h-2l-1-6v-23h-1l-1 17-1 3-1 15v225l-1 125h-381l-1-1v-198l1-48h2l-1-3h3v-46l1-7 3-1 1 10v49l6 2-1-138-4-6-1 43-5-4-1-50-4-7v-95l-1-111-1-5 1-16-1-15 7-12 7-11 7-10v-5l9-6h2l3-9 7-3 7-7 5-4 1-7 1-3-10 5h-2l1 4-3 4h-6l-2-1-13 6h-2l-1-15 20-20 7-2 12-7v-12l5-1 1 3 11-6 12-2 6-5 2-1 10-1 19-10h2v-7l7-3 4-1 1-68-10 5h-2v-10l-22 6-34 14-24 12-3 3-11 5h-1v-22l-1-2 1-15 1-9-2-4-18 10-10 6-3-3v-41l9-6 22-12h2l-1-27-1-3v-22l1-2 1-27 1-57h-592v1065h-1z" fill="#00B2D7"/>
<path transform="translate(1,1)" d="m0 0h442l-5 4-20 14-16 12-14 11-13 11-11 9-8 8-8 7-25 25-7 8-10 11-9 11-4 5 3 3-2 4-5-2-16 21-11 16-13 20-13 22-12 22-13 26-4 9-2 7-6 12-10 27-11 34-10 40-5 26-3 20-3 22-2 22-1 18v56l2 30 3 27 1 7 2 8 1 11 8 38 9 33 12 36 8 21 14 32 14 28 14 24 3 5v2h2l5 10 10 15 14 20 9 12 9 11 11 13 8 10 10 11 4 6 7 6h6v8l7 6 6 7 8 7 3 5-7 8-10 13-5 7-2 4-10 10-7 8-2 5h-320z" fill="#004C96"/>
<path transform="translate(474,1)" d="m0 0h119v57l-1 27-1 2v22l1 3v27l-26 14-6 4v41l2 2 19-11 10-5 2 5-2 18v6l1 2v21l11-5h2l1-3 16-8 17-8 28-11 15-4h4v10l10-5h2v68l-8 3-3 1-1 7-21 11-10 1-4 2-4 4-12 2-9 5h-2l-1-2-4 1v11l-8 5-7 4-7 2-7 8-10 10v15l15-7 2 1h6l2-5v-2l13-6-2 11-14 13-5 1-4 9-10 6v5l-12 17-5 9-4 7 1 23-1 9 1 4 1 112v94l4 7 1 50 3 3 1-43 5 5 1 2v138l-4-1-2-1-1-49-1-8h-1l-1 6-1 46-2 1v2h-2v247h-90l-1-228v-52l1-74 4 4 6 9 3-2 1-7v-377l-8 12-3 5-3 3-1-75-13 17-12 18-13 22-10 19-12 28-7 20-7 23-7 31-4 28-2 31v28l2 28 4 28 6 28 9 31 8 21 12 27 12 23 13 21 4 7 5 5 4 8 2 1 1 5-9 12-3 1-2 4-10 13-3 5-5-2-7-9-5-7-5-5-13-19-11-18-11-20v-2l-4-1v-6l-8-17-10-26-10-32-6-26-5-29-3-31v-55l3-31 5-30 6-25 8-27 10-27 9-20 2-6 3-5-4-1 1-4 5 1 13-23 12-19 14-20 11-14 12-14 14-15 11-11z" fill="#004C96"/>
<path transform="translate(933)" d="m0 0h185v1l-88 1-3 6 3 1-1 4h-2l2 4 1 5-3 1 2 4 1 5-3 1 2 4 1 5-3 2v3h2l1 5-3 3-1 2h3l1 5-5 2 1 3h3l1 5-5 1 2 4h2l1 5-5 1 1 4 4 1-1 5-4 2 1 2 4 1-1 5h-4l1 3 4 2-1 5h-4l1 3 4 2-1 5h-4l1 4 4 1-1 5h-4v5h5l-1 5h-4l1 4 4 1-1 5-4 2v3h5l-1 5h-4l2 4 3 1v5l13 11v29l-1 8-3 1-14-9v-2l-10-1v17l-2 3-1 6h3v33l-3 2-13-10-5-3v13l2 1v11l1 7 1 13 2 133 5 11 3 2v7l6 19 5 24 2 15 1 14v21l-2 23-4 22-2 10v7l-3 10 3 7-1 12 1 10 2 3v15h7l1 1-1 9-9 19-1 5v13l1 4 4 2-1 5-3 7 1 6 8 3 3 15v20l2 7 1 11v20l-1 24v59h4l1 117 4-3-2 4-2 2-1 48h-87v-350l1-15 1-3 1-17 1-7h1l1 9v27l4-4 1-2v-80l-8 14-12 17-11 14-11 12-12 12-11 9-8 6-2-1-2-5 2-4 2-1-1-3h-1v-7l1-4 1-55 8-11 8-15 7-19 3-14 1-7v-31l-3-17-7-21-10-19-12-16-15-15-15-11-1-3 2-26v-26l-1-11-15-6-3-5-2-1-1 4h-4l2 5 1 1v10l-2 2v6l2 2v11l-2 1v20l-2 4-18-5-21-3v-59h-21v-26l14-8 4 1 16 8 26 14 5 3 19 10 37 19 1-2 1-13h14l2-9 1-1v-5l-5-5-9-6-5-7-2-9-24-10-11-4-1-8 3-3 6 2 7 3 2-13 2-7-5-2-14-8-13-7-2-5-3-2v-9l4-3v-5l-1-3v-5l-3-1v-3l4-3v-5l-1-2-1-6-2-4 4-3v-5l-1-3v-5l12 1 25 5 7 2v-2l-5-2-4-3-1-7 1-3 4-1 5 2h6v-8l-5-5-9-6-2-9 7-1 7 2h4l1-5 5-2 1-26 1-9-10-2-9-3-2-1-1-9 2-11v-13l-2-4 1-10 1-9v-12l2-10v-16l-1-10z" fill="#007CB1"/>
<path transform="translate(941,165)" d="m0 0 9 2 1 1 1 60 3 2 1-2 1-57 9 3 9 5 4 3 1 3 2-2 10 6v877h-47v-350l1-15 1-3 1-17 1-7h1l1 9v27l4-4 1-2v-80l-8 14-12 17-11 14-11 12-12 12-11 9-8 6-2-1-2-5 2-4 2-1-1-3h-1v-7l1-4 1-55 8-11 8-15 7-19 3-14 1-7v-31l-1-14 3-5-1-10 2-4-1-8v-22l1-4 1-19 2-9 2-3 1-9v-10l-7-8-12-11-18-13v-6l5 1 37 19 20 11 16 8v-15l2-2 8-1 2 6 5 2 1 1 1 11h2v-12l-7-11-3-2h-2l-2-7-11-13-4-5-8-7-12-11-17-13-2-3 1-3 16 1-1-2 1-16-10-7-3-2-2-13-5-2-16-9-3-5-1-14 1-3v-17l-3-13 1-8 1-1h8l1-5v-7l-1-2 6 1 25 10 7 3 2-7 1-19v-12l2-3-1-12z" fill="#004C96"/>
<path transform="translate(1030,1)" d="m0 0h52l2 2 1 12v10l-2 15-1 19v35l-1 35-1 6-1 76 7 8 4 4v45h-3l-7-7h-3v38l1 3-1 21-1 5 1 10-3 4-8-10-9-12-6-7-2 11 2 16-1 23 1 46 1 9 2 39 2 14 5 31 2 28v23l-1 17-1 6v17l2 17 1 5 1 9 1 23 1 4v14l1 2 3 45 2 10 6 3 1 6-1 28 1 43 1 3v49l-3 10-4 7-1 10v17l1 5v9l2 6v16l-2 38v12l1 3v17l-1 9 1 5v38l-1 10h-42v-48l3-4-3 2v-118h-4l-1-62 1-21v-20l-2-15-1-3v-20l-2-12v-3l-7-1-3-4 1-7 4-9-5-2-1-8v-9l3-10 8-17v-6l-7-1-1-15-2-3-1-15 1-7-3-9 3-9v-7l5-25 2-15 1-14v-21l-2-23-5-25-6-21-1-7v-3l-4-3-4-10-2-138-1-8-1-7v-11l-1-1v-13l5 2 13 10 2-1 1-33h-3v-6l2-3v-18l9 1 2 1v2l5 2 9 6h2l1-14v-23l-11-9-2-2 1-5-4-1-1-4 4-1 1-4h-5l-1-4 5-2 1-4h-5v-5l4-1 1-4h-5v-5l4-1 1-4h-5v-5l4-1 1-4-5-2v-3l4-1 1-4-5-2v-3l4-1v-4h-4l-1-4 5-2v-4h-4v-5l4-1-1-4-3 1v-6l4-1v-5l-4 1-1-4 5-2v-5h-3v-4l3-1v-5h-2l-1-4 3-1-1-4h-1v-5l2-1-1-4h-1v-5l2-1-1-4h-1v-5l2-1v-3l-2-1v-5z" fill="#004C96"/>
<path transform="translate(992)" d="m0 0h126v1l-88 1-3 6 3 1-1 4h-2l2 4 1 5-3 1 2 4 1 5-3 1 2 4 1 5-3 2v3h2l1 5-3 3-1 2h3l1 5-5 2 1 3h3l1 5-5 1 2 4h2l1 5-5 1 1 4 4 1-1 5-4 2 1 2 4 1-1 5h-4l1 3 4 2-1 5h-4l1 3 4 2-1 5h-4l1 4 4 1-1 5h-4v5h5l-1 5h-4l1 4 4 1-1 5-4 2v3h5l-1 5h-4l2 4 3 1v5l13 11v29l-1 8-3 1-14-9v-2l-10-1v17l-2 3-1 6h3v33l-3 2-13-10-5-3v13l2 1v11l1 7 1 13 2 133 5 11 3 2v7l6 19 5 24 2 15 1 14v21l-2 23-4 22-2 10v7l-3 10 3 7-1 12 1 10 2 3v15h7l1 1-1 9-9 19-1 5v13l1 4 4 2-1 5-3 7 1 6 8 3 3 15v20l2 7 1 11v20l-1 24v59h4l1 117 4-3-2 4-2 2-1 48h-40z" fill="#007CB2"/>
<path transform="translate(956,623)" d="m0 0h1v81l-4 6h-2l-1-6v-23h-1l-1 17-1 3-1 15v225l-1 125h-78v-1l20-1v-12l-2-2v-25l-1-7v-18l-2-3v-12l2-13 3-6v-40l-1-10-1-9-1-2v-45h-2l-4-12-2-17-2-9-2-6v-11l3-4 1-16-2-5v-14l9-9-1-4v-13l2-15-1-11-1-4-20 12-23 12-10 3v-7l6-3 1-1 2-12v-24l-2-4v-18l21-14 13-11 7-7 5-6 3 1h-2l1 4-1 48-1 9 2 2-1 4h-2l-1 8 3 1 9-7 14-12 15-15 11-14 13-18 8-14z" fill="#007BB0"/>
<path transform="translate(696,362)" d="m0 0h2v8l-11 6-1 72-7 7-11 14-8 13-8 17-5 16-3 19v25l3 18 5 17 9 19 8 12 8 10 9 9 1 4-1 15h7l5-2v5h-3l-5 3-1 5 9-2v5l-9 6-1 5h10v14l-5-1-2-4-4-1-4 4 2 5 3 3 1 4h4v-2l5-1v6l-2 2 3 2v5l-6-2-3-4-6-2-16-11-13-11-10-9-11-11-9-11-1-3h-2l-12-17-5-8-1-7-5-4-5-12-4-8-7-20-5-21-3-19-8-103v-11l28-15 29-15 22-12 27-14 19-10z" fill="#007EC8"/>
<path transform="translate(720,668)" d="m0 0 5 2 17 6 1 57 19 3v-56h2l1 4 4-1 1-2 26-2 15-3 13-4h2l1 67-2 1-1 35 2 4v9l-1 1-1 25h2v15h-2l1 34h1v6h-2v196l2 1h-43v-1h10l3-9 2-2v-5l-4-3-3-5-4-2-3-6 1-16h2l1-3 4 2 5-1 1-5-3-3-3-1 1-9 5-3v-5l-5-2-6 1-1-4 6-3 7-2 2-4-3-6 2-5 1-3-3-12-1-1-1-12 2-2v-5l-2-2-6-1 2-6 6-6v-5l-4-3-2-9 5-2 1-6-3-2-5 1v8l-4-2-3-9-1-56 1-45 8-1v-2l2-1v-21l-2-9-15 3-16-4-22-6-17-7-1-1z" fill="#008CC9"/>
<path transform="translate(473,361)" d="m0 0h1v341l-3 2-5-8-11-23-11-29-8-29-5-26-3-26-1-20v-15l2-32 5-32 7-28 9-27 10-23 11-22z" fill="#002361"/>
<path transform="translate(682,197)" d="m0 0h4v10l10-5h2v68l-8 3-3 1-1 7-21 11-10 1-4 2-4 4-12 2-9 5h-2l-1-2-4 1v11l-8 5-7 4-7 2-7 8-20 20-1-5v-7l8-5h2v-19l1-11-1-28 1-12v-23l10-7h2v-2l11-5h2l1-3 16-8 17-8 28-11z" fill="#004FBA"/>
<path transform="translate(593,1)" d="m0 0h29l-5 4 1 6 1 4 4 1 1-11-1-4h17v119l-13 5h-3l-1-2v-10l1-9-5-1-2 2v5l4 5 1 4h-3l-1 5-2 5-11 5-1 6-2-2-3 1v-2l-5 2v42l20-10 9 1 3-6 11-5h3v50l2 1-16 7-20 10-3 3-11 5h-1v-22l-1-2 1-15 1-9-2-4-18 10-10 6-3-3v-41l9-6 22-12h2l-1-27-1-3v-22l1-2 1-27z" fill="#007FC9"/>
<path transform="translate(800,170)" d="m0 0 6 2 17 9v5l4 1v7l-1 2 1 7v11l-2 2 2 7v71l-3 1v2l-9-1-18-3 2-7-5-2-11-6-1-20h-3l-1 18-6 4h-2l-1-2h-4l1 5-3 1v-21l10-5h-10l-1-18v-56l5-1h35l-4-7 1-5z" fill="#0050BA"/>
<path transform="translate(720,668)" d="m0 0 5 2 17 6 1 57 19 3v-56h2l1 4 4-1 1-2 26-2 15-3 13-4h2l1 67-17 6-22 6-12 2-16-4-22-6-17-7-1-1z" fill="#0050BA"/>
<path transform="translate(718,426)" d="m0 0h2l1 49-1 192-6-2-14-9-1-1-1-51-4-10-3-4-5-13-2-17v-40l4-13 7-14 3-4 1-52 13-8z" fill="#00DCF0"/>
<path transform="translate(696,362)" d="m0 0h2v8l-19 11-12 8-14 11-12 11-7 8-8 10-7 10-10 17-5 10-4 6-3-4v5l3 2-3 9-6 25-2 16v13l-1 2v20l3 21 2 6 3 15 1 6v7l4 1 12 25 6 9 2 6-5-4-11-17-1-7-5-4-5-12-4-8-7-20-5-21-3-19-8-103v-11l28-15 29-15 22-12 27-14 19-10z" fill="#0050B9"/>
<path transform="translate(623,432)" d="m0 0h1l1 11-1 169v14l-1 10 1 3v11l-2 4-3-1-6-11-9-17-4-9-3-1-1-7-2-10-3-16-2-5-2-17v-20l1-4v-11l2-16 6-25 3-9-3-2 1-7 2 3 1 2 5-9 11-20z" fill="#007FC9"/>
<path transform="translate(822,740)" d="m0 0h2v35l2 4v9l-1 1-1 25h2v15h-2l1 34h1v6h-2l-1 51-1 2h-4l-2-5-1-17-6-4-4-4-4-14-2-4-1-18v-6l-3-3h-6l-4-5-3-13 1-45 8-1v-2l2-1v-21l-2-9 9-3 19-6z" fill="#007FC9"/>
<path transform="translate(579,686)" d="m0 0 5 5 2 4v55l-1 55-4 5 1 9-2 5-1 242h-15l-1-1v-198l1-48h2l-1-3h3v-46l1-7 3-1 1 10v49l6 2z" fill="#007FC9"/>
<path transform="translate(744,417)" d="m0 0 7 1 4 3v7l-2 9h6l3 2 1 9v139l-1 62-2 4-14-1-4-3v-229z" fill="#00DCF0"/>
<path transform="translate(648,1)" d="m0 0h38v106l-36 10h-2z" fill="#007FC9"/>
<path transform="translate(776,319)" d="m0 0 4 1 16 8 26 14 5 3v13h-4l2 5 1 1v10l-2 2v6l2 2v11l-2 1v20l-2 4-18-5-21-3v-59h-21v-26z" fill="#004C96"/>
<path transform="translate(590,139)" d="m0 0h3l1 42 20-10 9 1 3-6 11-5h3v50l2 1-16 7-20 10-3 3-11 5h-1v-22l-1-2 1-15 1-9-2-4-18 10-10 6-3-3v-41l9-6z" fill="#007FC9"/>
<path transform="translate(1089,370)" d="m0 0 3 3 12 25 10 27 7 24 5 23 3 22 1 13v20l-5 4-6 3-5-1-1-4-3-1-1-6v-15l-14 6-3-1 1-9 1-2-4-6-1-24z" fill="#002361"/>
<path transform="translate(616,223)" d="m0 0h3v9l5-1-1 12h-4v9h5v10l-5 1v10l5-1v9l-1 2h-4v10l5-1v12h-5v12l-8 5-7 4-7 2-7 8-20 20-1-5v-7l8-5h2v-19l1-11-1-28 1-12v-23l10-7h2v-2l11-5h2l1-3z" fill="#0050B9"/>
<path transform="translate(783,1)" d="m0 0h40v14l2 7 2 1-1 4-2 1-1 4v77l-5-1-16-9-14-7-5-6z" fill="#007FC9"/>
<path transform="translate(570,403)" d="m0 0 1 2 6 1h5l1 3-2 9 1 5-13 7h-2l9 114 4 23-1 118-4-5-1-1-1 43-5-4-1-50-4-7v-95l-1-111-1-5 1-16-1-15 7-12z" fill="#007FC9"/>
<path transform="translate(684,281)" d="m0 0h2v23l10-5h2l1 5-5 3-21 9-20 10-17 11-11 8-8 7h-1v-7l1-3-10 5h-2l1 4-3 4h-6l-2-1-13 6h-2l-1-15 20-20 7-2 12-7v-12l5-1 1 3 11-6 12-2 6-5 2-1 10-1z" fill="#008CC9"/>
<path transform="translate(767,183)" d="m0 0h11l5 2v21l1 27 23 13 4 3-1 9 13 2v18l-6-2-13-7-2 1v-3l-4 1-2 2-1 5-5 6-7-3-1-20h-3l-1 18-6 4h-2l-1-2h-4l1 5-3 1v-21l10-5h-10l-1-18v-56z" fill="#004D97"/>
<path transform="translate(699,927)" d="m0 0 17 1 4 3v46l-5 2-4 4v4l5 2 4 2v27l-3 7 3 1v39h-21v-72l2-7-1-7 1-4h-2z" fill="#00DCF0"/>
<path transform="translate(488,337)" d="m0 0h1v123l-2 5 1 18-2 9v11l-3 2v15l-1 11-2 3-1 11v29l-2 12h-2v5h-1v-232l4-5 4-8z" fill="#00307B"/>
<path transform="translate(800,114)" d="m0 0 6 2 17 9v10l1 7 2 1v4h-3l1 14 3 2v4h-4v14l-9-4-12-6h-2l-1 5 3 4v3l-24 1h-15v-18l13-7 9 1 3 1 1-3v-9l-8-5-4 1-6 3-5-1-3 4v-13l2 2 4 1-1-5 5-3 5 1v4l4-1 1-4 6 1 4 1 2-2h17l-10-6-2-2-2-8z" fill="#007EC8"/>
<path transform="translate(957,1)" d="m0 0h15v60l6 2v-24h3v27l-2 3v11l2 2-1 33h-1l-1 28-9-3-12-6z" fill="#004C96"/>
<path transform="translate(511,308)" d="m0 0 2 2 1 3v59l-2 4-1 20-2 8h2v11h-2l2 8v23l-2 9v12l-2 20-3 13-1 16-2 7-3 3-1-201 7-9z" fill="#003673"/>
<path transform="translate(734,186)" d="m0 0h8v109l-19 4h-3v-110l4-2z" fill="#004FB9"/>
<path transform="translate(784,509)" d="m0 0 8 1 8 6 6 7 3 7 1 5v7l-3 10-6 8-9 6h-3v48l-3 5-9 2-5-3-2-3-1-48-4-3h4v-6h-2l2-8-1-3 1-2 2-16 3-3 4 1 1 81h3l1-96z" fill="#004C96"/>
<path transform="translate(972,1)" d="m0 0h20v149l-5-1-6-4-1-10h-1l-1-6v-34h1l1-14-2 4v-19h2l1-27h-3v24l-4-1-2 2-1-6v-56z" fill="#007AB0"/>
<path transform="translate(964,419)" d="m0 0 6 2 9 5 1 28v-20l1-6 6 2 1 2-6 77-4 45-5 24-7 21h-1l1-9 4-23 1-13v-20l-2-19-5-23-2-7 1-13z" fill="#003673"/>
<path transform="translate(571,762)" d="m0 0h1l1 10v49h-5v244h5v-136l2-1 3 2 1 3v133h-15l-1-1v-198l1-48h2l-1-3h3v-46l1-7z" fill="#007FC8"/>
<path transform="translate(623,1)" d="m0 0h17v119l-13 5h-3l-1-2v-10l1-9v-39l-1-2v-11l1-7v-40z" fill="#007FC9"/>
<path transform="translate(740,338)" d="m0 0h2v79l-19 7h-3v-75z" fill="#007FC9"/>
<path transform="translate(682,197)" d="m0 0h4v10l10-5h2v68l-8 3-4 1v-47l1-10-1-9-25 13-12 7-1 19-5 1-2-1v-35l10-5 16-6z" fill="#004C96"/>
<path transform="translate(696,299)" d="m0 0h2l1 5-5 3-21 9-20 10-17 11-11 8-8 7h-1v-7l1-3-10 5h-2l1 4-3 4h-6l-2-1-13 6h-2l-1-15 20-20 7-2 13-7v8l-2 2 1 5 1 1v7l16-8 18-10 5-3 4-4 14-5 8-5 10-4z" fill="#007FC9"/>
<path transform="translate(763,1)" d="m0 0h15v83l-7 5-4 5-4 1z" fill="#007FC9"/>
<path transform="translate(696,362)" d="m0 0h2v8l-19 11-12 8-14 11-12 11-7 8-8 10-6 8h-1l-1-34 25-13 22-12 19-10z" fill="#0050BA"/>
<path transform="translate(800,170)" d="m0 0 6 2 17 9v5l4 1v7l-1 2 1 7v11l-2 2 2 7v11l-2 2 1 1v6l-2-1-1 11-5-1-4-3-1-14-4-2-1-2v-18l2-3v-16l1-8-4-1-24-1v-1h19l-4-7 1-5z" fill="#004C97"/>
<path transform="translate(721,669)" d="m0 0 21 7v57l-8-1-13-4z" fill="#004C96"/>
<path transform="translate(587,141)" d="m0 0 2 1-3 12v28l2 4-16 9-10 6-3-3v-41l9-6z" fill="#007FC9"/>
<path transform="translate(821,971)" d="m0 0 2 1v90l-1 3 4 1h-28v-1h20v-7l-3-4-2-2-1-11-5-9-1-1v-15l3-4v-10l-6-3 1-11 2-4 8-4 5-3h2l-1-4z" fill="#007FC9"/>
<path transform="translate(778,352)" d="m0 0h5l1 3v35l-1 22h-14v-3h-4l-1 4h-1v-60z" fill="#0082CA"/>
<path transform="translate(763,680)" d="m0 0 2 4 4-1 1-2h14l2 7 1 6-2 3-1 39-1 1-14-1v-5l-3 1-1 4h-2z" fill="#004F99"/>
<path transform="translate(984,1)" d="m0 0h8v149l-5-1-6-4v-39l1-12h1l1 31 1-6v-35l1-72h-2l-1 4v-14z" fill="#004C96"/>
<path transform="translate(776,319)" d="m0 0 4 1 16 8 5 4-2 5 1 6 1 3v7l2 1-25-1h-16v-26z" fill="#0051B9"/>
<path transform="translate(623,432)" d="m0 0h1l1 11-1 169v14l-1 10 1 3v11l-2 4-3-1v-16l1-4-1-2v-194z" fill="#008CC9"/>
<path transform="translate(637,161)" d="m0 0h3v50l2 1-16 7-4 2h-3v-8l5-2v-6l-1-2-4-1-1-10-2-2 1-6 1-1 1-10 4-1 3-6z" fill="#007FC9"/>
<path transform="translate(580,423)" d="m0 0h1l-1 31-1 98-3-1-3-32-6-78v-11z" fill="#004C96"/>
<path transform="translate(774,508)" d="m0 0h11l-1 4-1 96-4 1-1-1-1-81-4 1-2 6-1 11-1 4 1 4-3 5h2l1 4-1 2-5 1-1-1v-52z" fill="#007EC8"/>
<path transform="translate(573,561)" d="m0 0h5l2 9-1 115-4-5-1-1-1 43-5-4v-48l4 4z" fill="#007FC9"/>
<path transform="translate(814,743)" d="m0 0h3v6l-1 6 2 5-4 10-6 11-5 2-10 1-2 6h-3l-1 7v10l-1 7-3 3v-33l8-1v-2l2-1v-21l-2-9 9-3z" fill="#008CC9"/>
<path transform="translate(571,882)" d="m0 0 2 4v179h-5v-179l2-3z" fill="#008DCA"/>
<path transform="translate(767,183)" d="m0 0h11l1 4v15l1 4-1 2v9l2 5h-2l-1 10-8 5-1 4-3 1-4-2v-56z" fill="#0057BC"/>
<path transform="translate(741,251)" d="m0 0h1v44l-19 4h-3v-37l16-8z" fill="#008CC9"/>
<path transform="translate(711,103)" d="m0 0h9v34l-15 5-6 1v-37l7-2z" fill="#00DCF0"/>
<path transform="translate(791,307)" d="m0 0 5 1 27 14 4 4-1 8-2 2v7l-6-2-22-12-8-4 2-15z" fill="#008CC9"/>
<path transform="translate(798,266)" d="m0 0 10 4 15 8 3 5 1 1v10l-3 1v2l-9-1-18-3 2-7-5-2-4-2 2-5 3-4v-5h2z" fill="#004FBA"/>
<path transform="translate(574,554)" d="m0 0 4 1v6h-5v114l-5-5v-112l5-1z" fill="#008ECA"/>
<path transform="translate(779,258)" d="m0 0h3l1 2v18l6 2 10 6-1 6 3 2-38-1v-9l3-1-2-5 5-1 1 3 7-4 1-16z" fill="#0081C9"/>
<path transform="translate(821,33)" d="m0 0 2 2v62l-2 2-5-1-4-8-2-3 1-6 3-4v-8l-4-5v-6l3-1 3-14z" fill="#004C96"/>
<path transform="translate(579,686)" d="m0 0 5 5 2 4v55l-1 24-3 5h-2l-1 2z" fill="#007FC9"/>
<path transform="translate(720,668)" d="m0 0 2 1-1 59 17 4 24 4v-56h1v57l-1 12-16-4-13-4-12-5-1-1z" fill="#007FC9"/>
<path transform="translate(718,307)" d="m0 0 2 1v24l-7 4-10 5h-4v-24l6-3 5-4z" fill="#00DCF0"/>
<path transform="translate(762,512)" d="m0 0h1v52l-6-4-6-9-2-6v-14l4-9 7-8z" fill="#00B3D8"/>
<path transform="translate(685,152)" d="m0 0h1v13l-25 13-11 6h-2v-12l14-8z" fill="#007FC9"/>
<path transform="translate(770,814)" d="m0 0 8 3 2 4-2 6-4 2v6l4 2v10l-4 2-2 3-9-1v-35h5z" fill="#0090CB"/>
<path transform="translate(952,822)" d="m0 0 3 1 1 13v82l-1 9-3 1-1-2v-101z" fill="#007CB1"/>
<path transform="translate(496,200)" d="m0 0h1v57h-2l-2 4-4 2v-57z" fill="#007FC9"/>
<path transform="translate(684,180)" d="m0 0h2v13l-10 5-1 2-16 5-11 4v-9l10-6 23-12z" fill="#007FC9"/>
<path transform="translate(776,159)" d="m0 0 7 1v24h-20v-18z" fill="#0086CB"/>
<path transform="translate(800,114)" d="m0 0 6 2 17 9-1 8-6 1-4 3-3 7-6-1-11-6 3-4h17l-10-6-2-2-2-8z" fill="#008CC9"/>
<path transform="translate(1071,340)" d="m0 0h2l6 11 1 2-2 13v30l-6 1-1-16-4-1v-8h2v-2h2l-2-5h-2v-10l2-1z" fill="#002C77"/>
<path transform="translate(586,540)" d="m0 0h1l2 30 2 11 2 6 3 15 1 6v7l4 1 12 25 6 9 2 6-5-4-11-17-1-7-5-4-5-12-4-8-5-15z" fill="#0051B5"/>
<path transform="translate(741,268)" d="m0 0h1v27l-19 4h-3v-13l9-4h2l1-3 5-3z" fill="#0079C3"/>
<path transform="translate(740,338)" d="m0 0h2v18l-18 5h-4v-12z" fill="#0050B9"/>
<path transform="translate(778,537)" d="m0 0h1v5h2l1-5h1v71l-4 1-1-1z" fill="#007FC9"/>
<path transform="translate(992)" d="m0 0h14v1h-12l1 152v37l-1 66h-1l-1-91z" fill="#00B3D8"/>
<path transform="translate(685,274)" d="m0 0h1v7l-21 11-10 1-4 2-4 4-5 1h-7l3-3 22-12 20-9z" fill="#004C96"/>
<path transform="translate(590,139)" d="m0 0h3v43l-3 1v2h-3l-2-4v-27l3-12z" fill="#008CC9"/>
<path transform="translate(759,98)" d="m0 0h3v13l-12 7-7 4-1-1v-15l3-3z" fill="#00DCF0"/>
<path transform="translate(571,820)" d="m0 0 2 1v65l-3-2-2 2v-65z" fill="#008CC9"/>
<path transform="translate(906,583)" d="m0 0h1l1 12-1 6 1 3v8l-2 8-1 33-2 4-1-1v-42l-1-4h-2v-3l-2-1 7-17z" fill="#007BB0"/>
<path transform="translate(582,360)" d="m0 0 2 2v9l-3 4-2 7-8 5h-2v6l-2 1-1-4-1 2 1-10-2-4v-2l9-3 1-9z" fill="#004FBA"/>
<path transform="translate(655,292)" d="m0 0h10l-4 3-25 13-10 6-2 2h-5l-1-6v-6l5-1 1 3 11-6 12-2 6-5z" fill="#007FC9"/>
<path transform="translate(696,193)" d="m0 0h3v81l-13 7v-7l7-3 4-1 1-68-10 5h-2v-10l-3-1z" fill="#007FC9"/>
<path transform="translate(697,661)" d="m0 0h1v5h-3l-5 3-1 5 9-2v5l-9 6-1 5h10v14l-5-1-2-4-5-1v-33h7z" fill="#008DCA"/>
<path transform="translate(741,150)" d="m0 0h1v13l-19 10h-2v-12z" fill="#0080C9"/>
<path transform="translate(579,686)" d="m0 0 5 5 2 4-1 40-6-5z" fill="#008DCA"/>
<path transform="translate(720,668)" d="m0 0 2 1-1 59 17 4 4 1v10l-6-1-15-6-1-1z" fill="#005BBC"/>
<path transform="translate(716,150)" d="m0 0h4v10l-17 9h-4v-11l9-4z" fill="#00DCF0"/>
<path transform="translate(814,319)" d="m0 0 5 1 8 5-1 9-2 2v7l-6-2-5-3v-10l-1-7z" fill="#007CB2"/>
<path transform="translate(949,85)" d="m0 0h2v45l-6-1-2-2 1-9 2-9 1-1v-9l-1-4v-4l2-5z" fill="#004C96"/>
<path transform="translate(571,882)" d="m0 0 2 4v43l-5-1v-42l2-3z" fill="#00B3D8"/>
<path transform="translate(700,903)" d="m0 0 6 2 10 1 4 3v6l-3 2-14-1-3-1-1-3v-8z" fill="#00DCF0"/>
<path transform="translate(591,742)" d="m0 0 4 4 1 4 1 1 1-2 4 2 2 2v9l-2 4-3-2-2-8h-2l-1 3-1 22-1 5h-1l-1-28v-13z" fill="#008DCA"/>
<path transform="translate(619,41)" d="m0 0 5 2 1 7-1 5v8l1 7-2 6-3 1-3-6-1-1v-5l2-2v-11l-2-3 1-5z" fill="#00B2D7"/>
<path transform="translate(816,1)" d="m0 0h7v24l-2 6-4-1-2-5v-18z" fill="#004C96"/>
<path transform="translate(790,149)" d="m0 0 5 2 10 6-2 9-2 2-5-1-8-4 1-5v-8z" fill="#008DCA"/>
<path transform="translate(584,774)" d="m0 0h1v31l-4 5 1 9-2 5h-1v-43l4-4z" fill="#008DCA"/>
<path transform="translate(809,147)" d="m0 0 6 2 8 5v11l-5-1-12-7-1-3 3-6z" fill="#004C96"/>
<path transform="translate(648,629)" d="m0 0h6l5 5-1 6-4 4h-6l-5-5 1-7z" fill="#00B3D8"/>
<path transform="translate(779,184)" d="m0 0 4 1v48l-5-1v-8l1-2h2l-1-4-2-1v-9l1-3-1-9v-11z" fill="#004C96"/>
<path transform="translate(773,133)" d="m0 0 5 1v4l5-1v7h-5l-7 4-5-1-3 4v-13l2 2 4 1-1-5z" fill="#0080C9"/>
<path transform="translate(770,784)" d="m0 0h6l1 3-3 2v6l4 2v9l-1 1-7-1-1-4-6-1v-4l6-2-1-9z" fill="#008DCA"/>
<path transform="translate(578,877)" d="m0 0h1v56l-4-4h-2v-24h5z" fill="#008DCA"/>
<path transform="translate(778,508)" d="m0 0h7l-1 4-1 25-1 6-3-1-1-5-1-26z" fill="#007CB1"/>
<path transform="translate(814,896)" d="m0 0 9 3v21l-1 2h-4l-2-5-1-17z" fill="#007CB1"/>
<path transform="translate(623,432)" d="m0 0h1l1 11-1 18-2 5-3-2v-27z" fill="#008DCA"/>
<path transform="translate(586,540)" d="m0 0h1l2 30 2 11 1 1v5h-1l-1 11-3-3-2-8z" fill="#004C96"/>
<path transform="translate(816,917)" d="m0 0 2 1v4h4l1-2v13l-3 3-8-5v-9l3-2z" fill="#007EC5"/>
<path transform="translate(621,315)" d="m0 0h3l1 16-2 7-4 1-1-7-2-2 1-5 1-1 1-8z" fill="#00B3D8"/>
<path transform="translate(819,741)" d="m0 0 4 1v19l-3 1-2 5h-1v-8l-2-4 1-6 1-7z" fill="#007CB1"/>
<path transform="translate(824,672)" d="m0 0h2l1 66h-1v-6h-2l-1-13z" fill="#004C96"/>
<path transform="translate(823,358)" d="m0 0 4 1v42 3 10l-3 2-1-20 3-1-1-11-2-2v-6l2-2v-10l-2-2z" fill="#0086C9"/>
<path transform="translate(635,673)" d="m0 0 7 6 10 10 17 13 17 11v3l-5-2-14-10-11-9-12-11-9-9z" fill="#004C96"/>
<path transform="translate(741,251)" d="m0 0h1v11l-20 2-1 2-1-4 16-8z" fill="#007FC9"/>
<path transform="translate(651,305)" d="m0 0h9l-1 3h-3v2l-15 4-6-2v-3l9-3z" fill="#007FC9"/>
<path transform="translate(822,97)" d="m0 0h1v12l-5-1-16-9v-1h12l8 1z" fill="#008CC9"/>
<path transform="translate(778,159)" d="m0 0 5 1v24h-5z" fill="#008CC9"/>
<path transform="translate(1006)" d="m0 0h112v1l-88 1-4 1-1-1-19-1z" fill="#007EC1"/>
<path transform="translate(779,231)" d="m0 0 4 2v23l-5-1v-23z" fill="#007FC9"/>
<path transform="translate(686,706)" d="m0 0 2 2 1 4h4v-2l5-1v6l-2 2 3 2v5l-6-2-3-4-5-1z" fill="#008DCA"/>
<path transform="translate(579,686)" d="m0 0 5 5 2 4-4 16h-3z" fill="#007FC9"/>
<path transform="translate(821,732)" d="m0 0h2v8l-9 4-3-1-1-8z" fill="#004C96"/>
<path transform="translate(623,412)" d="m0 0h1l1 19-5 6h-1v-24z" fill="#004C96"/>
<path transform="translate(647,627)" d="m0 0h8l4 4 2 6-2 5-4 4-4 1-7-3-3-4v-6l4-6zm1 2-5 5 1 7 4 3h6l4-4 1-6-5-5z" fill="#008DCA"/>
<path transform="translate(826,254)" d="m0 0h1v30l-4-3v-25h3z" fill="#0080C9"/>
<path transform="translate(827,204)" d="m0 0 4 4 1 7 1 1v5l-3 3h-2l-1 3-2-10-1-2 2-1z" fill="#00ACD6"/>
<path transform="translate(696,362)" d="m0 0h2v8l-12 6v-8z" fill="#004C96"/>
<path transform="translate(681,292)" d="m0 0h5l-1 7-14 3-1-5 9-4z" fill="#007FC9"/>
<path transform="translate(793,1026)" d="m0 0 5 2 1 6-3 3-6-1-2-5z" fill="#00B3D8"/>
<path transform="translate(617,304)" d="m0 0 2 1v11l-8 5-7 4-3-1 13-11 2-1v-6z" fill="#004C96"/>
<path transform="translate(622,19)" d="m0 0 2 4 1 1-1 8-5 1-3-4 1-5 3-4z" fill="#00B2D7"/>
<path transform="translate(619,82)" d="m0 0 5 1 1 7-2 5h-3l-4-5v-5z" fill="#00B3D8"/>
<path transform="translate(792,866)" d="m0 0 5 1 2 2-1 6-1 1h-6l-2-2v-6z" fill="#00B3D8"/>
<path transform="translate(787,257)" d="m0 0 17 1-1 5-2 2-6-1-9-5z" fill="#007FC9"/>
<path transform="translate(792,846)" d="m0 0 5 1 2 3-1 5-1 1h-6l-2-2v-6z" fill="#00B3D8"/>
<path transform="translate(792,826)" d="m0 0 5 1 2 3-1 5-7 1-2-2 1-7z" fill="#00B3D8"/>
<path transform="translate(619,202)" d="m0 0 5 1 1 2v6l-2 2-5-1-2-2 1-6z" fill="#00B3D8"/>
<path transform="translate(1140,4)" d="m0 0h13l-1 5-6 3-8-6z" fill="#004C96"/>
<path transform="translate(818,1052)" d="m0 0h4l1 10-1 3 4 1h-28v-1h20z" fill="#007DBA"/>
<path transform="translate(799,286)" d="m0 0 6 2 10 6v1l-14-1-4-2z" fill="#004C96"/>
<path transform="translate(606,630)" d="m0 0 3 3 9 16 3 5-1 2-6-7-9-14z" fill="#0053B3"/>
<path transform="translate(823,323)" d="m0 0 4 2-1 9-4 3h-2l-2-4v-6h2l1-2z" fill="#008DCA"/>
<path transform="translate(597,205)" d="m0 0h6l2 2v5l-2 2h-6l-2-5z" fill="#00B3D8"/>
<path transform="translate(597,185)" d="m0 0h6l2 2v5l-2 2h-6l-2-5z" fill="#00B3D8"/>
<path transform="translate(620,182)" d="m0 0 4 1 1 7-2 3-5-1-2-2 1-6z" fill="#00B3D8"/>
<path transform="translate(639,460)" d="m0 0 5 2 1 5-3 3-5-1-2-5z" fill="#00B3D8"/>
<path transform="translate(779,276)" d="m0 0 4 4v13h-6l1-14z" fill="#008DCA"/>
<path transform="translate(909,519)" d="m0 0 4 5 1 5v6h-2v24h-1l-1-28z" fill="#007CB1"/>
<path transform="translate(978,95)" d="m0 0h1l1 19h1v16l-1 5h-1l-1-6z" fill="#0077AE"/>
<path transform="translate(595,608)" d="m0 0h1l1 7 4 1 6 14-2 2-2-5-5-5-4-11z" fill="#0050B1"/>
<path transform="translate(598,586)" d="m0 0h5l2 2v5l-2 2h-5l-2-2v-5z" fill="#00B3D8"/>
<path transform="translate(597,566)" d="m0 0h6l2 2v5l-2 2h-5l-2-2z" fill="#00B3D8"/>
<path transform="translate(600,326)" d="m0 0 5 1v6l-3 2-5-1-2-5z" fill="#00B2D7"/>
<path transform="translate(741,178)" d="m0 0h1v8l-16 1 4-3z" fill="#0089C9"/>
<path transform="translate(734,136)" d="m0 0 4 1-15 8h-2v-7z" fill="#0087C9"/>
<path transform="translate(597,546)" d="m0 0h3l4 1 1 1v5l-2 2h-5l-2-2z" fill="#00B3D8"/>
<path transform="translate(597,486)" d="m0 0h4l4 2v5l-2 2-6-1-1-1v-6z" fill="#00B3D8"/>
<path transform="translate(597,506)" d="m0 0 3 1h4l1 1v5l-2 2h-5l-2-2z" fill="#00B3D8"/>
<path transform="translate(598,245)" d="m0 0h5l2 2-1 7-4 1-3-2 1-3-3 1 2-5z" fill="#004C96"/>
<path transform="translate(601,526)" d="m0 0 4 2v5l-2 2h-5l-2-2v-5z" fill="#00B3D8"/>
<path transform="translate(623,461)" d="m0 0h1v16l-2 1-3-1v-13l3 1z" fill="#0091CB"/>
<path transform="translate(597,225)" d="m0 0h6l2 2v4l-8 3-2-5z" fill="#00AFD6"/>
<path transform="translate(598,345)" d="m0 0 6 1 2 5-2 3h-3v-3h-3l-1 2-2-4z" fill="#00B0D7"/>
<path transform="translate(639,457)" d="m0 0 5 3 2 2v6l-3 3h-6l-3-2v-9zm0 3-4 4 2 5 5 1 3-3-1-5z" fill="#008DCA"/>
<path transform="translate(686,713)" d="m0 0 5 2 8 4v5l-6-2-3-4-5-1z" fill="#0080C9"/>
<path transform="translate(823,281)" d="m0 0 4 3v10l-3 1v2h-5l3-2z" fill="#004C96"/>
<path transform="translate(500,531)" d="m0 0h2v14h-4v-13z" fill="#003673"/>
<path transform="translate(623,292)" d="m0 0h1v12l-5-1v-10z" fill="#004C96"/>
<path transform="translate(619,252)" d="m0 0h5v10l-5 1z" fill="#004C96"/>
<path transform="translate(591,331)" d="m0 0 2 1-12 12-1-3 1-4z" fill="#004C96"/>
<path transform="translate(872,699)" d="m0 0h2l-1 9-1 5h-5l1-10 2 3z" fill="#007FC9"/>
<path transform="translate(622,453)" d="m0 0 2 3-1 9h-3l-1-1v-10z" fill="#00B3D8"/>
<path transform="translate(620,402)" d="m0 0 4 2v8l-5 1-1-10z" fill="#007FC9"/>
<path transform="translate(597,306)" d="m0 0 3 3 4-2 1 5-1 2h-7l-1-1v-6z" fill="#007FC9"/>
<path transform="translate(622,272)" d="m0 0h2v9l-1 2h-4v-10z" fill="#004C96"/>
<path transform="translate(623,172)" d="m0 0h1v10l-5 1v-10z" fill="#008DCA"/>
<path transform="translate(599,606)" d="m0 0 5 1 1 1v5l-2 2h-3l-2-8z" fill="#00B3D8"/>
<path transform="translate(597,286)" d="m0 0 1 4 6-3 1 5-2 2h-6l-1-1v-6z" fill="#007FC9"/>
<path transform="translate(619,283)" d="m0 0 5 1v8l-5 1z" fill="#007FC9"/>
<path transform="translate(569,1052)" d="m0 0h3l1 13h-5z" fill="#00B3D8"/>
<path transform="translate(619,263)" d="m0 0 5 1v8l-5 1z" fill="#007FC9"/>
<path transform="translate(621,231)" d="m0 0h3l-1 12h-4v-11z" fill="#004C96"/>
<path transform="translate(623,192)" d="m0 0h1v11l-5-1v-9z" fill="#008DCA"/>
<path transform="translate(597,447)" d="m0 0 3 3 4-3 1 1v5l-3 2-5-1-1-1v-5z" fill="#007FC9"/>
<path transform="translate(598,265)" d="m0 0h5l2 3-5 6-2-1v-5l-2-1z" fill="#004C96"/>
<path transform="translate(623,32)" d="m0 0h1v11l-5-2v-8z" fill="#008DCA"/>
<path transform="translate(824,343)" d="m0 0 3 2v9l-4 3v-12z" fill="#0050B5"/>
<path transform="translate(619,243)" d="m0 0 5 1v8h-5z" fill="#007FC9"/>
<path transform="translate(662,203)" d="m0 0 3 1-15 8h-2l1-4z" fill="#004FB7"/>
<path transform="translate(598,425)" d="m0 0 6 1 1 2h-2l-2 4-1 3-2-1v-6l-2-1z" fill="#004C96"/>
<path transform="translate(619,223)" d="m0 0 5 1v7l-5 1z" fill="#007FC9"/>
<path transform="translate(623,92)" d="m0 0h1v11l-5-1v-7z" fill="#008DCA"/>
<path transform="translate(765,257)" d="m0 0h9l-4 4-7 2v-5z" fill="#008FCD"/>
<path transform="translate(952,744)" d="m0 0 4 2v9l-4 1z" fill="#007CB1"/>
<path transform="translate(760,127)" d="m0 0h2v4l-6 2h-6v-2z" fill="#00DCF0"/>
<path transform="translate(579,406)" d="m0 0h3l1 3-2 9 1 5h-3z" fill="#008DCA"/>
<path transform="translate(774,402)" d="m0 0 3 1v8l-6 1z" fill="#004C96"/>
<path transform="translate(623,212)" d="m0 0h1v8l-5 1v-8z" fill="#008CC9"/>
<path transform="translate(764,680)" d="m0 0h23v1h-17l-1 3h-4z" fill="#0083C9"/>
<path transform="translate(824,403)" d="m0 0 3 1v10l-3 2z" fill="#007FC9"/>
<path transform="translate(623,72)" d="m0 0h1v11l-5-1v-6l3-1z" fill="#0093CC"/>
<path transform="translate(820,325)" d="m0 0h1l1 7 1 3-1 2h-2l-2-4v-6h2z" fill="#007FC9"/>
<path transform="translate(776,858)" d="m0 0h1v7l-3 1-3-3 2-4z" fill="#008DCA"/>
<path transform="translate(1006)" d="m0 0h24l-1 3-4-1-19-1z" fill="#0088CB"/>
<path transform="translate(621,434)" d="m0 0h2v12l-4-5 1-5z" fill="#00ADD6"/>
<path transform="translate(721,138)" d="m0 0 6 2v3l-6 2z" fill="#008DCA"/>
<path transform="translate(569,356)" d="m0 0h1v7l-7 1 4-6z" fill="#0050BB"/>
<path transform="translate(623,12)" d="m0 0h1v11l-2-3h-3v-5l4 1z" fill="#008DCA"/>
<path transform="translate(336,1058)" d="m0 0 5 1-1 4h-4l-1-4z" fill="#004C96"/>
<path transform="translate(335,1048)" d="m0 0h5l1 4-3 2-3-2z" fill="#004C96"/>
<path transform="translate(826,394)" d="m0 0h1v7l-3 2-1-1v-6z" fill="#008BC9"/>
<path transform="translate(782,137)" d="m0 0h1v7l-5-1v-5z" fill="#008DCA"/>
<path transform="translate(588,377)" d="m0 0 2 1-6 8-2-4 4-4z" fill="#007FC9"/>
<path transform="translate(765,841)" d="m0 0h4l1 4-3 2-3-2z" fill="#00B3D8"/>
<path transform="translate(599,445)" d="m0 0 5 1-2 4h-2l-1 2-2-6z" fill="#004C96"/>
</svg>
